<?xml version="1.0" encoding="UTF-8" standalone="no"?>
<svg
   xmlns:dc="http://purl.org/dc/elements/1.1/"
   xmlns:cc="http://creativecommons.org/ns#"
   xmlns:rdf="http://www.w3.org/1999/02/22-rdf-syntax-ns#"
   xmlns:svg="http://www.w3.org/2000/svg"
   xmlns="http://www.w3.org/2000/svg"
   viewBox="0 0 238.73334 143.88"
   height="143.88"
   width="238.73334"
   xml:space="preserve"
   id="svg2"
   version="1.1"><metadata
     id="metadata8"><rdf:RDF><cc:Work
         rdf:about=""><dc:format>image/svg+xml</dc:format><dc:type
           rdf:resource="http://purl.org/dc/dcmitype/StillImage" /></cc:Work></rdf:RDF></metadata><defs
     id="defs6" /><g
     transform="matrix(1.3333333,0,0,-1.3333333,0,143.88)"
     id="g10"><g
       transform="scale(0.1)"
       id="g12"><path
         id="path14"
         style="fill:#006838;fill-opacity:1;fill-rule:evenodd;stroke:none"
         d="M 110.984,1046.16 H 1679.54 c 42.95,0 78.08,-35.13 78.08,-78.07 V 329.695 c 0,-42.941 -35.13,-78.066 -78.08,-78.066 H 110.984 c -42.9488,0 -78.0738,35.125 -78.0738,78.066 V 968.09 c 0,42.94 35.125,78.07 78.0738,78.07 v 0" /><path
         id="path16"
         style="fill:#fcd006;fill-opacity:1;fill-rule:evenodd;stroke:none"
         d="M 1679.54,1079.06 H 110.984 C 49.7852,1079.06 0,1029.28 0,968.09 V 329.695 C 0,268.504 49.7852,218.719 110.984,218.719 H 1679.54 c 61.2,0 110.99,49.785 110.99,110.976 V 968.09 c 0,61.19 -49.79,110.97 -110.99,110.97 m 0,-794.54 H 110.984 c -24.9098,0 -45.1754,20.273 -45.1754,45.175 V 968.09 c 0,24.902 20.2656,45.17 45.1754,45.17 H 1679.54 c 24.91,0 45.18,-20.268 45.18,-45.17 V 693.68 H 552.031 V 904.039 H 425.73 V 693.68 H 319.531 V 904.039 H 193.242 V 396.883 H 319.531 V 592.828 H 425.73 V 396.883 H 552.031 V 592.828 H 1724.72 V 329.695 c 0,-24.902 -20.27,-45.175 -45.18,-45.175" /><path
         id="path18"
         style="fill:#fcd006;fill-opacity:1;fill-rule:evenodd;stroke:none"
         d="m 691.57,909.074 c -29.297,0 -52.617,-7.879 -69.312,-23.41 -16.762,-15.598 -25.266,-37.43 -25.266,-64.887 0,-27.547 8.446,-49.422 25.086,-65.039 16.582,-15.515 39.965,-23.367 69.492,-23.367 29.438,0 52.856,7.899 69.602,23.484 16.816,15.606 25.34,37.454 25.34,64.922 0,27.45 -8.524,49.278 -25.34,64.887 -16.738,15.531 -40.156,23.41 -69.602,23.41 m 23.243,-120.609 c -5.489,-7.324 -13.086,-10.899 -23.243,-10.899 -10.015,0 -17.539,3.563 -22.996,10.86 -5.5,7.41 -8.281,18.301 -8.281,32.351 0,13.953 2.762,24.766 8.242,32.164 5.36,7.247 12.891,10.766 23.035,10.766 10,0 17.832,-3.652 23.254,-10.859 5.574,-7.41 8.406,-18.203 8.406,-32.071 0,-13.953 -2.832,-24.812 -8.417,-32.312" /><path
         id="path20"
         style="fill:#fcd006;fill-opacity:1;fill-rule:evenodd;stroke:none"
         d="m 1004.23,903.297 h -1.95 l -0.42,-1.899 -22.407,-99.117 -19.363,99.039 -0.383,1.977 h -2.004 -58.758 -2.019 l -0.371,-1.984 -18.762,-98.825 -22.199,98.907 -0.426,1.902 h -1.953 -58.07 -3.34 l 1.027,-3.184 51.512,-160.605 0.547,-1.688 h 1.769 57.606 1.933 l 0.442,1.895 22.16,95.398 20.933,-95.371 0.434,-1.922 h 1.949 58.703 1.79 l 0.53,1.7 51.4,160.593 1.01,3.184 h -3.34 -57.98" /><path
         id="path22"
         style="fill:#fcd006;fill-opacity:1;fill-rule:evenodd;stroke:none"
         d="m 1247.41,755.289 c -1.33,3.926 -2,9.445 -2,16.426 v 60.859 c 0,15.383 -0.89,26.848 -2.67,34.074 -1.78,7.274 -4.9,13.637 -9.24,18.895 -6.24,7.324 -14.99,12.848 -26.04,16.449 -10.8,3.528 -24.19,5.317 -39.83,5.317 -25.25,0 -45.06,-4.618 -58.9,-13.727 -14.06,-9.238 -22.61,-23.434 -25.43,-42.164 l -0.42,-2.805 h 2.83 52.49 2 l 0.4,1.977 c 1.02,5.246 3.57,9.125 7.79,11.863 4.31,2.789 10.35,4.207 17.96,4.207 6.96,0 12.21,-1.101 15.58,-3.269 3.06,-1.953 4.54,-4.743 4.54,-8.528 v -3.816 c 0,-1.52 -1.97,-6.781 -27.38,-10.598 -12.48,-1.945 -23.46,-3.898 -32.62,-5.804 -15.9,-3.391 -28,-9.532 -35.95,-18.231 -8.01,-8.809 -12.06,-20.266 -12.06,-34.082 0,-15.156 5.21,-27.363 15.49,-36.32 10.14,-8.875 24.05,-13.379 41.32,-13.379 11.04,0 21.34,1.847 30.6,5.488 8.01,3.137 15.66,7.891 22.89,13.996 0.23,-1.445 0.43,-2.793 0.68,-4.316 0.52,-3 1.18,-5.899 1.7,-8.106 l 0.44,-1.875 h 1.93 58.11 2.43 v 2.442 6.054 1.602 l -1.46,0.633 c -2.22,0.957 -3.97,3.234 -5.18,6.738 m -60.94,56.719 v -14.617 c 0,-7.559 -2.81,-13.762 -8.35,-18.43 -5.68,-4.754 -13.15,-7.168 -22.2,-7.168 -5.63,0 -10.19,1.543 -13.57,4.602 -3.32,3.007 -4.94,6.921 -4.94,11.98 0,3.965 1.15,7.031 3.52,9.348 2.52,2.461 6.99,4.531 13.35,6.191 2.06,0.496 5.86,1.336 12,2.469 8.68,1.691 15.42,3.574 20.19,5.625" /><path
         id="path24"
         style="fill:#fcd006;fill-opacity:1;fill-rule:evenodd;stroke:none"
         d="m 1363.81,899.055 c -7.27,-4.051 -13.66,-10.067 -19.11,-17.832 v 19.64 2.434 h -2.44 -54.66 -2.43 v -2.434 -160.601 -2.442 h 2.43 56.63 2.43 v 2.442 53.945 c 0,13.711 0.46,23.797 1.34,30 0.78,5.727 2.22,10.375 4.2,13.465 3.09,4.535 7.33,8 12.57,10.234 5.4,2.266 12.36,3.422 20.71,3.422 2.09,0 4.31,-0.074 6.65,-0.226 2.12,-0.149 4.39,-0.36 7.17,-0.661 l 2.7,-0.3 v 2.718 52.012 2.469 l -2.47,-0.031 c -14.32,-0.204 -26.34,-2.985 -35.72,-8.254" /><path
         id="path26"
         style="fill:#fcd006;fill-opacity:1;fill-rule:evenodd;stroke:none"
         d="m 1605.03,960.332 h -59.06 v -72.766 c -5.21,5.891 -11.41,10.598 -18.53,14 -9.19,4.379 -19.79,6.606 -31.53,6.606 -21.9,0 -40.1,-8.348 -54.09,-24.797 -13.92,-16.359 -20.98,-37.723 -20.98,-63.504 0,-25.656 7.03,-46.699 20.91,-62.578 13.95,-15.969 32.4,-24.074 54.79,-24.074 11.5,0 21.73,2.207 30.43,6.554 6.86,3.426 13.1,8.407 18.65,14.735 v -14.246 -2.442 h 2.44 56.97 2.43 v 2.442 217.64 2.43 h -2.43 m -58.42,-138.098 c 0,-13.964 -2.67,-24.648 -7.95,-31.73 -5.15,-6.922 -12.59,-10.293 -22.74,-10.293 -10.22,0 -17.79,3.418 -23.14,10.469 -5.43,7.16 -8.18,17.773 -8.18,31.554 0,12.5 2.82,22.446 8.42,29.551 5.46,6.922 12.95,10.434 22.26,10.434 10.06,0 17.6,-3.328 23.04,-10.172 5.5,-6.914 8.29,-16.945 8.29,-29.813" /><path
         id="path28"
         style="fill:#fcd006;fill-opacity:1;fill-rule:evenodd;stroke:none"
         d="m 774.746,413.641 c -1.379,3.847 -2.078,9.265 -2.078,16.113 v 59.93 c 0,15.156 -0.941,26.457 -2.797,33.605 -1.875,7.176 -5.137,13.465 -9.695,18.641 -6.504,7.199 -15.633,12.629 -27.16,16.172 -11.258,3.468 -25.254,5.214 -41.582,5.214 -26.356,0 -47.032,-4.539 -61.485,-13.484 -14.687,-9.102 -23.621,-23.078 -26.582,-41.562 l -0.445,-2.813 h 2.859 54.883 1.992 l 0.399,1.934 c 1.066,5.144 3.73,8.953 8.144,11.66 4.531,2.762 10.879,4.168 18.899,4.168 7.324,0 12.851,-1.094 16.406,-3.25 3.191,-1.926 4.758,-4.649 4.758,-8.332 v -3.758 c 0,-1.484 -2.074,-6.621 -28.723,-10.391 -13.066,-1.925 -24.531,-3.847 -34.082,-5.722 -16.609,-3.34 -29.219,-9.356 -37.527,-17.922 -8.379,-8.672 -12.621,-19.989 -12.621,-33.633 0,-14.961 5.441,-27.02 16.203,-35.84 10.578,-8.719 25.078,-13.133 43.086,-13.133 11.523,0 22.265,1.805 31.922,5.371 8.418,3.125 16.476,7.86 24.082,13.926 0.238,-1.406 0.492,-2.863 0.761,-4.367 0.528,-2.957 1.223,-5.82 1.77,-7.977 l 0.461,-1.855 h 1.902 60.77 2.445 v 2.441 5.965 1.641 L 780.184,407 c -2.34,0.965 -4.176,3.191 -5.438,6.641 m -63.484,55.828 v -14.434 c 0,-7.402 -2.953,-13.484 -8.742,-18.066 -5.957,-4.715 -13.809,-7.098 -23.332,-7.098 -5.934,0 -10.75,1.543 -14.317,4.559 -3.465,2.949 -5.152,6.789 -5.152,11.738 0,3.859 1.199,6.855 3.668,9.133 2.636,2.422 7.355,4.492 14.023,6.121 2.168,0.5 6.145,1.328 12.559,2.441 9.23,1.68 16.293,3.555 21.293,5.606" /><path
         id="path30"
         style="fill:#fcd006;fill-opacity:1;fill-rule:evenodd;stroke:none"
         d="m 923.469,563.316 c -12.778,0 -24.004,-2.214 -33.352,-6.57 -7.355,-3.437 -13.855,-8.391 -19.453,-14.668 v 14.852 2.441 h -2.441 -58.196 -2.429 v -2.441 -158.153 -2.441 h 2.429 59.219 2.434 v 2.441 84.676 c 0,12.688 2.254,21.945 6.687,27.52 4.278,5.441 11.34,8.183 20.969,8.183 8.758,0 14.746,-2.234 17.82,-6.629 2.239,-3.183 4.903,-11.699 4.903,-34.191 v -79.559 -2.441 h 2.433 59.563 2.437 v 2.441 102.871 c 0,21.524 -5.074,37.372 -15.074,47.09 -9.965,9.676 -26.098,14.578 -47.949,14.578" /><path
         id="path32"
         style="fill:#fcd006;fill-opacity:1;fill-rule:evenodd;stroke:none"
         d="m 1137.66,563.316 c -12.79,0 -24.02,-2.214 -33.36,-6.57 -7.35,-3.437 -13.85,-8.398 -19.46,-14.668 v 14.852 2.441 h -2.43 -58.19 -2.44 v -2.441 -158.153 -2.441 h 2.44 59.21 2.44 v 2.441 84.676 c 0,12.688 2.25,21.953 6.68,27.52 4.29,5.441 11.35,8.183 20.98,8.183 8.75,0 14.75,-2.234 17.81,-6.629 2.24,-3.183 4.91,-11.699 4.91,-34.191 v -79.559 -2.441 h 2.42 59.57 2.43 v 2.441 102.871 c 0,21.524 -5.06,37.364 -15.06,47.09 -9.97,9.676 -26.11,14.578 -47.95,14.578" /><path
         id="path34"
         style="fill:#fcd006;fill-opacity:1;fill-rule:evenodd;stroke:none"
         d="m 1408.33,407 c -2.35,0.965 -4.18,3.191 -5.46,6.641 -1.38,3.847 -2.07,9.265 -2.07,16.113 v 59.93 c 0,15.156 -0.94,26.476 -2.8,33.605 -1.88,7.176 -5.13,13.457 -9.69,18.641 -6.5,7.199 -15.63,12.629 -27.17,16.172 -11.25,3.468 -25.24,5.214 -41.58,5.214 -26.36,0 -47.03,-4.539 -61.47,-13.484 -14.69,-9.102 -23.64,-23.078 -26.6,-41.562 l -0.45,-2.813 h 2.87 54.89 1.99 l 0.4,1.934 c 1.07,5.144 3.72,8.953 8.15,11.66 4.53,2.762 10.88,4.168 18.89,4.168 7.33,0 12.85,-1.094 16.41,-3.25 3.19,-1.926 4.74,-4.649 4.74,-8.332 v -3.758 c 0,-1.484 -2.07,-6.621 -28.71,-10.391 -13.05,-1.925 -24.53,-3.847 -34.09,-5.722 -16.59,-3.34 -29.22,-9.356 -37.52,-17.922 -8.37,-8.672 -12.62,-19.989 -12.62,-33.633 0,-14.961 5.44,-27.02 16.21,-35.84 10.57,-8.719 25.07,-13.133 43.08,-13.133 11.52,0 22.26,1.805 31.93,5.371 8.42,3.125 16.49,7.871 24.09,13.946 0.25,-1.465 0.47,-2.852 0.75,-4.387 0.54,-2.957 1.22,-5.82 1.77,-7.977 l 0.47,-1.855 h 1.89 60.76 2.44 v 2.441 5.965 1.641 l -1.5,0.617 m -68.95,62.469 v -14.434 c 0,-7.402 -2.93,-13.484 -8.73,-18.066 -5.95,-4.715 -13.8,-7.098 -23.33,-7.098 -5.93,0 -10.75,1.543 -14.31,4.559 -3.47,2.949 -5.16,6.789 -5.16,11.738 0,3.859 1.2,6.855 3.67,9.133 2.64,2.422 7.35,4.492 14.02,6.121 2.16,0.5 6.15,1.328 12.58,2.441 9.2,1.68 16.26,3.555 21.26,5.606" /><path
         id="path36"
         style="fill:#fcd006;fill-opacity:1;fill-rule:evenodd;stroke:none"
         d="m 1444.72,558.395 h 157.86 V 395.426 h -157.86 v 162.969" /><path
         id="path38"
         style="fill:#006838;fill-opacity:1;fill-rule:evenodd;stroke:none"
         d="M 110.984,1046.16 H 1679.54 c 42.95,0 78.08,-35.13 78.08,-78.07 V 329.695 c 0,-42.941 -35.13,-78.066 -78.08,-78.066 H 110.984 c -42.9488,0 -78.0738,35.125 -78.0738,78.066 V 968.09 c 0,42.94 35.125,78.07 78.0738,78.07 v 0" /><path
         id="path40"
         style="fill:#fcd006;fill-opacity:1;fill-rule:evenodd;stroke:none"
         d="M 1679.54,1079.06 H 110.984 C 49.7852,1079.06 0,1029.28 0,968.09 V 329.695 C 0,268.504 49.7852,218.719 110.984,218.719 H 1679.54 c 61.2,0 110.99,49.785 110.99,110.976 V 968.09 c 0,61.19 -49.79,110.97 -110.99,110.97 m 0,-794.54 H 110.984 c -24.9098,0 -45.1754,20.273 -45.1754,45.175 V 968.09 c 0,24.902 20.2656,45.17 45.1754,45.17 H 1679.54 c 24.91,0 45.18,-20.268 45.18,-45.17 V 693.68 H 552.031 V 904.039 H 425.73 V 693.68 H 319.531 V 904.039 H 193.242 V 396.883 H 319.531 V 592.828 H 425.73 V 396.883 H 552.031 V 592.828 H 1724.72 V 329.695 c 0,-24.902 -20.27,-45.175 -45.18,-45.175" /><path
         id="path42"
         style="fill:#fcd006;fill-opacity:1;fill-rule:evenodd;stroke:none"
         d="m 691.57,909.074 c -29.297,0 -52.617,-7.879 -69.312,-23.41 -16.762,-15.598 -25.266,-37.43 -25.266,-64.887 0,-27.547 8.446,-49.422 25.086,-65.039 16.582,-15.515 39.965,-23.367 69.492,-23.367 29.438,0 52.856,7.899 69.602,23.484 16.816,15.606 25.34,37.454 25.34,64.922 0,27.45 -8.524,49.278 -25.34,64.887 -16.738,15.531 -40.156,23.41 -69.602,23.41 m 23.243,-120.609 c -5.489,-7.324 -13.086,-10.899 -23.243,-10.899 -10.015,0 -17.539,3.563 -22.996,10.86 -5.5,7.41 -8.281,18.301 -8.281,32.351 0,13.953 2.762,24.766 8.242,32.164 5.36,7.247 12.891,10.766 23.035,10.766 10,0 17.832,-3.652 23.254,-10.859 5.574,-7.41 8.406,-18.203 8.406,-32.071 0,-13.953 -2.832,-24.812 -8.417,-32.312" /><path
         id="path44"
         style="fill:#fcd006;fill-opacity:1;fill-rule:evenodd;stroke:none"
         d="m 1004.23,903.297 h -1.95 l -0.42,-1.899 -22.407,-99.117 -19.363,99.039 -0.383,1.977 h -2.004 -58.758 -2.019 l -0.371,-1.984 -18.762,-98.825 -22.199,98.907 -0.426,1.902 h -1.953 -58.07 -3.34 l 1.027,-3.184 51.512,-160.605 0.547,-1.688 h 1.769 57.606 1.933 l 0.442,1.895 22.16,95.398 20.933,-95.371 0.434,-1.922 h 1.949 58.703 1.79 l 0.53,1.7 51.4,160.593 1.01,3.184 h -3.34 -57.98" /><path
         id="path46"
         style="fill:#fcd006;fill-opacity:1;fill-rule:evenodd;stroke:none"
         d="m 1247.41,755.289 c -1.33,3.926 -2,9.445 -2,16.426 v 60.859 c 0,15.383 -0.89,26.848 -2.67,34.074 -1.78,7.274 -4.9,13.637 -9.24,18.895 -6.24,7.324 -14.99,12.848 -26.04,16.449 -10.8,3.528 -24.19,5.317 -39.83,5.317 -25.25,0 -45.06,-4.618 -58.9,-13.727 -14.06,-9.238 -22.61,-23.434 -25.43,-42.164 l -0.42,-2.805 h 2.83 52.49 2 l 0.4,1.977 c 1.02,5.246 3.57,9.125 7.79,11.863 4.31,2.789 10.35,4.207 17.96,4.207 6.96,0 12.21,-1.101 15.58,-3.269 3.06,-1.953 4.54,-4.743 4.54,-8.528 v -3.816 c 0,-1.52 -1.97,-6.781 -27.38,-10.598 -12.48,-1.945 -23.46,-3.898 -32.62,-5.804 -15.9,-3.391 -28,-9.532 -35.95,-18.231 -8.01,-8.809 -12.06,-20.266 -12.06,-34.082 0,-15.156 5.21,-27.363 15.49,-36.32 10.14,-8.875 24.05,-13.379 41.32,-13.379 11.04,0 21.34,1.847 30.6,5.488 8.01,3.137 15.66,7.891 22.89,13.996 0.23,-1.445 0.43,-2.793 0.68,-4.316 0.52,-3 1.18,-5.899 1.7,-8.106 l 0.44,-1.875 h 1.93 58.11 2.43 v 2.442 6.054 1.602 l -1.46,0.633 c -2.22,0.957 -3.97,3.234 -5.18,6.738 m -60.94,56.719 v -14.617 c 0,-7.559 -2.81,-13.762 -8.35,-18.43 -5.68,-4.754 -13.15,-7.168 -22.2,-7.168 -5.63,0 -10.19,1.543 -13.57,4.602 -3.32,3.007 -4.94,6.921 -4.94,11.98 0,3.965 1.15,7.031 3.52,9.348 2.52,2.461 6.99,4.531 13.35,6.191 2.06,0.496 5.86,1.336 12,2.469 8.68,1.691 15.42,3.574 20.19,5.625" /><path
         id="path48"
         style="fill:#fcd006;fill-opacity:1;fill-rule:evenodd;stroke:none"
         d="m 1363.81,899.055 c -7.27,-4.051 -13.66,-10.067 -19.11,-17.832 v 19.64 2.434 h -2.44 -54.66 -2.43 v -2.434 -160.601 -2.442 h 2.43 56.63 2.43 v 2.442 53.945 c 0,13.711 0.46,23.797 1.34,30 0.78,5.727 2.22,10.375 4.2,13.465 3.09,4.535 7.33,8 12.57,10.234 5.4,2.266 12.36,3.422 20.71,3.422 2.09,0 4.31,-0.074 6.65,-0.226 2.12,-0.149 4.39,-0.36 7.17,-0.661 l 2.7,-0.3 v 2.718 52.012 2.469 l -2.47,-0.031 c -14.32,-0.204 -26.34,-2.985 -35.72,-8.254" /><path
         id="path50"
         style="fill:#fcd006;fill-opacity:1;fill-rule:evenodd;stroke:none"
         d="m 1605.03,960.332 h -59.06 v -72.766 c -5.21,5.891 -11.41,10.598 -18.53,14 -9.19,4.379 -19.79,6.606 -31.53,6.606 -21.9,0 -40.1,-8.348 -54.09,-24.797 -13.92,-16.359 -20.98,-37.723 -20.98,-63.504 0,-25.656 7.03,-46.699 20.91,-62.578 13.95,-15.969 32.4,-24.074 54.79,-24.074 11.5,0 21.73,2.207 30.43,6.554 6.86,3.426 13.1,8.407 18.65,14.735 v -14.246 -2.442 h 2.44 56.97 2.43 v 2.442 217.64 2.43 h -2.43 m -58.42,-138.098 c 0,-13.964 -2.67,-24.648 -7.95,-31.73 -5.15,-6.922 -12.59,-10.293 -22.74,-10.293 -10.22,0 -17.79,3.418 -23.14,10.469 -5.43,7.16 -8.18,17.773 -8.18,31.554 0,12.5 2.82,22.446 8.42,29.551 5.46,6.922 12.95,10.434 22.26,10.434 10.06,0 17.6,-3.328 23.04,-10.172 5.5,-6.914 8.29,-16.945 8.29,-29.813" /><path
         id="path52"
         style="fill:#fcd006;fill-opacity:1;fill-rule:evenodd;stroke:none"
         d="m 774.746,413.641 c -1.379,3.847 -2.078,9.265 -2.078,16.113 v 59.93 c 0,15.156 -0.941,26.457 -2.797,33.605 -1.875,7.176 -5.137,13.465 -9.695,18.641 -6.504,7.199 -15.633,12.629 -27.16,16.172 -11.258,3.468 -25.254,5.214 -41.582,5.214 -26.356,0 -47.032,-4.539 -61.485,-13.484 -14.687,-9.102 -23.621,-23.078 -26.582,-41.562 l -0.445,-2.813 h 2.859 54.883 1.992 l 0.399,1.934 c 1.066,5.144 3.73,8.953 8.144,11.66 4.531,2.762 10.879,4.168 18.899,4.168 7.324,0 12.851,-1.094 16.406,-3.25 3.191,-1.926 4.758,-4.649 4.758,-8.332 v -3.758 c 0,-1.484 -2.074,-6.621 -28.723,-10.391 -13.066,-1.925 -24.531,-3.847 -34.082,-5.722 -16.609,-3.34 -29.219,-9.356 -37.527,-17.922 -8.379,-8.672 -12.621,-19.989 -12.621,-33.633 0,-14.961 5.441,-27.02 16.203,-35.84 10.578,-8.719 25.078,-13.133 43.086,-13.133 11.523,0 22.265,1.805 31.922,5.371 8.418,3.125 16.476,7.86 24.082,13.926 0.238,-1.406 0.492,-2.863 0.761,-4.367 0.528,-2.957 1.223,-5.82 1.77,-7.977 l 0.461,-1.855 h 1.902 60.77 2.445 v 2.441 5.965 1.641 L 780.184,407 c -2.34,0.965 -4.176,3.191 -5.438,6.641 m -63.484,55.828 v -14.434 c 0,-7.402 -2.953,-13.484 -8.742,-18.066 -5.957,-4.715 -13.809,-7.098 -23.332,-7.098 -5.934,0 -10.75,1.543 -14.317,4.559 -3.465,2.949 -5.152,6.789 -5.152,11.738 0,3.859 1.199,6.855 3.668,9.133 2.636,2.422 7.355,4.492 14.023,6.121 2.168,0.5 6.145,1.328 12.559,2.441 9.23,1.68 16.293,3.555 21.293,5.606" /><path
         id="path54"
         style="fill:#fcd006;fill-opacity:1;fill-rule:evenodd;stroke:none"
         d="m 923.469,563.316 c -12.778,0 -24.004,-2.214 -33.352,-6.57 -7.355,-3.437 -13.855,-8.391 -19.453,-14.668 v 14.852 2.441 h -2.441 -58.196 -2.429 v -2.441 -158.153 -2.441 h 2.429 59.219 2.434 v 2.441 84.676 c 0,12.688 2.254,21.945 6.687,27.52 4.278,5.441 11.34,8.183 20.969,8.183 8.758,0 14.746,-2.234 17.82,-6.629 2.239,-3.183 4.903,-11.699 4.903,-34.191 v -79.559 -2.441 h 2.433 59.563 2.437 v 2.441 102.871 c 0,21.524 -5.074,37.372 -15.074,47.09 -9.965,9.676 -26.098,14.578 -47.949,14.578" /><path
         id="path56"
         style="fill:#fcd006;fill-opacity:1;fill-rule:evenodd;stroke:none"
         d="m 1137.66,563.316 c -12.79,0 -24.02,-2.214 -33.36,-6.57 -7.35,-3.437 -13.85,-8.398 -19.46,-14.668 v 14.852 2.441 h -2.43 -58.19 -2.44 v -2.441 -158.153 -2.441 h 2.44 59.21 2.44 v 2.441 84.676 c 0,12.688 2.25,21.953 6.68,27.52 4.29,5.441 11.35,8.183 20.98,8.183 8.75,0 14.75,-2.234 17.81,-6.629 2.24,-3.183 4.91,-11.699 4.91,-34.191 v -79.559 -2.441 h 2.42 59.57 2.43 v 2.441 102.871 c 0,21.524 -5.06,37.364 -15.06,47.09 -9.97,9.676 -26.11,14.578 -47.95,14.578" /><path
         id="path58"
         style="fill:#fcd006;fill-opacity:1;fill-rule:evenodd;stroke:none"
         d="m 1408.33,407 c -2.35,0.965 -4.18,3.191 -5.46,6.641 -1.38,3.847 -2.07,9.265 -2.07,16.113 v 59.93 c 0,15.156 -0.94,26.476 -2.8,33.605 -1.88,7.176 -5.13,13.457 -9.69,18.641 -6.5,7.199 -15.63,12.629 -27.17,16.172 -11.25,3.468 -25.24,5.214 -41.58,5.214 -26.36,0 -47.03,-4.539 -61.47,-13.484 -14.69,-9.102 -23.64,-23.078 -26.6,-41.562 l -0.45,-2.813 h 2.87 54.89 1.99 l 0.4,1.934 c 1.07,5.144 3.72,8.953 8.15,11.66 4.53,2.762 10.88,4.168 18.89,4.168 7.33,0 12.85,-1.094 16.41,-3.25 3.19,-1.926 4.74,-4.649 4.74,-8.332 v -3.758 c 0,-1.484 -2.07,-6.621 -28.71,-10.391 -13.05,-1.925 -24.53,-3.847 -34.09,-5.722 -16.59,-3.34 -29.22,-9.356 -37.52,-17.922 -8.37,-8.672 -12.62,-19.989 -12.62,-33.633 0,-14.961 5.44,-27.02 16.21,-35.84 10.57,-8.719 25.07,-13.133 43.08,-13.133 11.52,0 22.26,1.805 31.93,5.371 8.42,3.125 16.49,7.871 24.09,13.946 0.25,-1.465 0.47,-2.852 0.75,-4.387 0.54,-2.957 1.22,-5.82 1.77,-7.977 l 0.47,-1.855 h 1.89 60.76 2.44 v 2.441 5.965 1.641 l -1.5,0.617 m -68.95,62.469 v -14.434 c 0,-7.402 -2.93,-13.484 -8.73,-18.066 -5.95,-4.715 -13.8,-7.098 -23.33,-7.098 -5.93,0 -10.75,1.543 -14.31,4.559 -3.47,2.949 -5.16,6.789 -5.16,11.738 0,3.859 1.2,6.855 3.67,9.133 2.64,2.422 7.35,4.492 14.02,6.121 2.16,0.5 6.15,1.328 12.58,2.441 9.2,1.68 16.26,3.555 21.26,5.606" /><path
         id="path60"
         style="fill:#fcd006;fill-opacity:1;fill-rule:evenodd;stroke:none"
         d="m 1444.72,558.395 h 157.86 V 395.426 h -157.86 v 162.969" /><path
         id="path62"
         style="fill:#006838;fill-opacity:1;fill-rule:nonzero;stroke:none"
         d="m 29.9492,78.1992 h 32.0703 c 7.1485,0 12.5118,1.4571 16.086,4.3672 3.5703,2.9102 5.3554,7.3125 5.3554,13.2031 0,5.8205 -1.6953,10.1835 -5.0859,13.1055 -3.3945,2.91 -8.4883,4.363 -15.2695,4.363 H 29.9492 Z M 2.28906,136.031 H 69.0469 c 12.6133,0 22.7773,-3.379 30.5,-10.136 7.7151,-6.747 11.5741,-15.653 11.5741,-26.7075 0,-12.7344 -4.297,-22.0391 -12.8827,-27.9258 -2.2813,-1.5703 -4.8633,-2.8828 -7.7461,-3.9726 1.6211,-0.6485 3.0898,-1.3672 4.4141,-2.1602 7.5667,-4.5 11.4997,-12.0703 11.8047,-22.6992 l 0.629,-21.7109 c 0.117,-4.3282 0.57,-7.3907 1.351,-9.1875 0.778,-1.81255 2.282,-3.24224 4.5,-4.33208 V 3.69141 H 82.6367 c -0.7226,1.38672 -1.3515,4.32812 -1.8945,8.87889 -0.543,4.5313 -0.8438,9.4102 -0.9024,14.6289 l -0.1757,12.2617 c -0.125,5.9493 -1.875,10.1797 -5.2696,12.6993 -3.3906,2.5195 -9.0156,3.7812 -16.875,3.7812 H 29.9492 V 3.60156 H 16.168 2.28906 V 136.031" /><path
         id="path64"
         style="fill:#006838;fill-opacity:1;fill-rule:nonzero;stroke:none"
         d="m 188.336,62.6992 c -0.602,5.8906 -2.164,10.4805 -4.688,13.7813 -3.3,4.3867 -8.437,6.582 -15.406,6.582 -6.664,0 -11.742,-2.5586 -15.226,-7.6523 -2.161,-3.25 -3.723,-7.4805 -4.68,-12.711 z M 168.602,1.07813 c -14.895,0 -26.379,4.59375 -34.457,13.78127 -8.082,9.1914 -12.118,22.289 -12.118,39.2812 0,15.6797 4.114,27.9453 12.344,36.8047 8.227,8.8555 19.637,13.2887 34.231,13.2887 14.957,0 26.476,-4.5192 34.55,-13.5621 8.078,-9.0352 12.121,-21.9024 12.121,-38.6016 0.118,-1.9297 -0.035,-3.8711 -0.453,-5.8515 h -66.757 c 0.597,-7.7579 2.312,-13.5469 5.136,-17.3907 3.602,-4.8086 9.61,-7.207 18.016,-7.207 3.906,0 7.523,1.1094 10.859,3.3281 3.332,2.2305 5.328,4.9024 5.992,8.0196 h 26.305 C 212.148,23 206.996,15.1914 198.922,9.55078 190.84,3.89844 180.738,1.07813 168.602,1.07813" /><path
         id="path66"
         style="fill:#006838;fill-opacity:1;fill-rule:nonzero;stroke:none"
         d="m 290.676,39.8203 v 11.2578 c -3.004,-1.6797 -6.969,-3.039 -11.891,-4.0468 l -9.551,-1.8125 c -4.507,-0.8399 -7.929,-2.379 -10.273,-4.6407 -2.34,-2.25 -3.512,-5.0781 -3.512,-8.5078 0,-3.9101 1.051,-6.9687 3.153,-9.1914 2.101,-2.2187 5.046,-3.3281 8.828,-3.3281 8.289,0 14.894,2.9101 19.82,8.7383 0.965,1.1406 1.773,2.8203 2.434,5.039 0.66,2.2227 0.992,4.3828 0.992,6.4922 z M 259.594,1.07813 c -9.071,0 -16.367,2.60156 -21.895,7.79296 -5.527,5.19921 -8.285,12.02731 -8.285,20.48831 0,8.9609 2.488,16.1211 7.477,21.5 4.984,5.3711 12.25,8.75 21.8,10.1289 l 17.028,2.3398 c 4.441,0.6016 8.136,1.6211 11.082,3.0625 1.262,0.5977 2.238,1.6797 2.926,3.25 0.695,1.5586 0.949,3.1485 0.765,4.7696 -0.359,2.7695 -1.769,4.9218 -4.23,6.4843 -2.946,1.8672 -7.18,2.793 -12.707,2.793 -4.922,0 -8.77,-1.1992 -11.528,-3.6016 -2.765,-2.4062 -4.234,-5.7968 -4.414,-10.1757 h -24.777 c 0.539,11.4648 4.445,20.0586 11.711,25.7617 7.266,5.7111 17.93,8.5621 31.98,8.5621 12.196,0 21.817,-2.578 28.879,-7.7145 7.055,-5.1367 10.586,-12.1562 10.586,-21.0507 V 20.6406 c 0,-4.3906 0.36,-7.4687 1.078,-9.25 0.723,-1.76169 2.164,-3.16013 4.325,-4.19138 V 7.12109 3.60156 H 307.43 293.469 v 0.08985 c -1.145,3.95703 -1.891,7.83989 -2.254,11.61719 L 291.121,15.5 C 283.016,5.89063 272.504,1.07813 259.594,1.07813" /><path
         id="path68"
         style="fill:#006838;fill-opacity:1;fill-rule:nonzero;stroke:none"
         d="M 339.414,136.031 H 365.27 V 3.60156 H 339.414 V 136.031" /><path
         id="path70"
         style="fill:#006838;fill-opacity:1;fill-rule:nonzero;stroke:none"
         d="M 443.285,3.60156 V 136.031 h 97.481 V 112.516 H 470.945 V 84.4102 h 64.778 V 73.0586 61.6211 h -64.778 v -34.5 h 72.883 V 15.4102 3.60156 H 443.285" /><path
         id="path72"
         style="fill:#006838;fill-opacity:1;fill-rule:nonzero;stroke:none"
         d="m 616.074,72.25 c 0,3.7813 -1.566,6.8203 -4.691,9.0938 -3.125,2.2851 -7.274,3.4296 -12.438,3.4296 -4.992,0 -8.882,-0.8593 -11.675,-2.5703 -2.797,-1.707 -4.196,-4.1015 -4.196,-7.1523 0,-2.1719 1.594,-4.0313 4.778,-5.5899 3.125,-1.5 8.679,-3.1523 16.668,-4.9609 15.863,-3.5508 26.464,-7.4102 31.812,-11.6211 5.363,-4.1992 8.043,-10.8086 8.043,-19.8203 0,-9.6094 -3.891,-17.3398 -11.672,-23.19922 -7.777,-5.84766 -18.035,-8.78125 -30.769,-8.78125 -15.079,0 -26.684,2.88281 -34.825,8.64062 -8.14,5.78125 -12.48,14.17965 -13.023,25.23045 h 26.309 c 0.179,-4.5 2.179,-8.0273 5.992,-10.5898 3.812,-2.5508 9,-3.8281 15.547,-3.8281 5.164,0 9.203,0.8906 12.121,2.6679 2.914,1.7696 4.367,4.25 4.367,7.4297 0,2.2227 -1.41,4.1094 -4.227,5.6797 -2.828,1.4922 -7.785,3.0195 -14.871,4.5898 -16.582,3.7305 -27.664,7.6524 -33.25,11.8008 -5.578,4.0821 -8.363,10.4219 -8.363,19.0117 0,9.7305 3.613,17.5821 10.848,23.5586 7.238,5.9765 16.773,8.9645 28.597,8.9645 13.336,0 24.082,-2.929 32.254,-8.7887 8.164,-5.8476 12.25,-13.582 12.25,-23.1953 h -25.586" /><path
         id="path74"
         style="fill:#006838;fill-opacity:1;fill-rule:nonzero;stroke:none"
         d="m 706.402,3.05859 c -4.324,-0.35937 -9.64,-0.53906 -15.941,-0.53906 -9.133,0 -15.695,1.64063 -19.691,4.91016 -3.993,3.26951 -5.989,8.62891 -5.989,16.08201 v 60 h -13.605 v 18.1053 h 13.605 v 26.399 h 25.856 v -26.399 h 15.765 V 83.5117 H 690.637 V 27.8398 c 0,-2.289 0.676,-3.789 2.031,-4.5117 1.344,-0.7187 4.152,-1.0781 8.422,-1.0781 h 5.312 V 3.05859" /><path
         id="path76"
         style="fill:#006838;fill-opacity:1;fill-rule:nonzero;stroke:none"
         d="m 779.242,39.8203 v 11.2578 c -3.004,-1.6797 -6.969,-3.039 -11.89,-4.0468 l -9.547,-1.8125 c -4.508,-0.8399 -7.934,-2.379 -10.278,-4.6407 -2.336,-2.25 -3.507,-5.0781 -3.507,-8.5078 0,-3.9101 1.046,-6.9687 3.152,-9.1914 2.101,-2.2187 5.047,-3.3281 8.828,-3.3281 8.285,0 14.895,2.9101 19.82,8.7383 0.961,1.1406 1.774,2.8203 2.434,5.039 0.656,2.2227 0.988,4.3828 0.988,6.4922 z M 748.164,1.07813 c -9.07,0 -16.367,2.60156 -21.894,7.79296 -5.528,5.19921 -8.286,12.02731 -8.286,20.48831 0,8.9609 2.489,16.1211 7.477,21.5 4.984,5.3711 12.25,8.75 21.801,10.1289 l 17.023,2.3398 c 4.445,0.6016 8.141,1.6211 11.086,3.0625 1.262,0.5977 2.234,1.6797 2.926,3.25 0.691,1.5586 0.945,3.1485 0.766,4.7696 -0.364,2.7695 -1.774,4.9218 -4.235,6.4843 -2.941,1.8672 -7.176,2.793 -12.703,2.793 -4.922,0 -8.77,-1.1992 -11.531,-3.6016 -2.762,-2.4062 -4.231,-5.7968 -4.414,-10.1757 h -24.774 c 0.535,11.4648 4.442,20.0586 11.707,25.7617 7.27,5.7111 17.934,8.5621 31.985,8.5621 12.191,0 21.816,-2.578 28.875,-7.7145 7.058,-5.1367 10.586,-12.1562 10.586,-21.0507 V 20.6406 c 0,-4.3906 0.363,-7.4687 1.082,-9.25 0.722,-1.76169 2.164,-3.16013 4.324,-4.19138 V 7.12109 3.60156 H 796 782.035 v 0.08985 c -1.14,3.95703 -1.89,7.83989 -2.25,11.61719 L 779.691,15.5 C 771.586,5.89063 761.074,1.07813 748.164,1.07813" /><path
         id="path78"
         style="fill:#006838;fill-opacity:1;fill-rule:nonzero;stroke:none"
         d="m 872.305,3.05859 c -4.321,-0.35937 -9.637,-0.53906 -15.942,-0.53906 -9.133,0 -15.695,1.64063 -19.687,4.91016 -3.996,3.26951 -5.992,8.62891 -5.992,16.08201 v 60 h -13.606 v 18.1053 h 13.606 v 26.399 h 25.855 v -26.399 h 15.766 V 83.5117 H 856.539 V 27.8398 c 0,-2.289 0.68,-3.789 2.031,-4.5117 1.348,-0.7187 4.153,-1.0781 8.422,-1.0781 h 5.313 V 3.05859" /><path
         id="path80"
         style="fill:#006838;fill-opacity:1;fill-rule:nonzero;stroke:none"
         d="m 950.945,62.6992 c -0.593,5.8906 -2.156,10.4805 -4.675,13.7813 -3.301,4.3867 -8.438,6.582 -15.411,6.582 -6.66,0 -11.738,-2.5586 -15.222,-7.6523 -2.16,-3.25 -3.723,-7.4805 -4.68,-12.711 z M 931.219,1.07813 c -14.891,0 -26.379,4.59375 -34.457,13.78127 -8.082,9.1914 -12.117,22.289 -12.117,39.2812 0,15.6797 4.117,27.9453 12.343,36.8047 8.227,8.8555 19.645,13.2887 34.231,13.2887 14.953,0 26.476,-4.5192 34.551,-13.5621 8.078,-9.0352 12.121,-21.9024 12.121,-38.6016 0.117,-1.9297 -0.032,-3.8711 -0.45,-5.8515 h -66.757 c 0.593,-7.7579 2.312,-13.5469 5.136,-17.3907 3.606,-4.8086 9.61,-7.207 18.02,-7.207 3.902,0 7.515,1.1094 10.855,3.3281 3.332,2.2305 5.325,4.9024 5.989,8.0196 h 26.308 C 974.766,23 969.617,15.1914 961.531,9.55078 953.457,3.89844 943.359,1.07813 931.219,1.07813" /><path
         id="path82"
         style="fill:#006838;fill-opacity:1;fill-rule:nonzero;stroke:none"
         d="m 1120.11,96.3047 c -0.48,6.3083 -3.24,11.3083 -8.28,15.0003 -5.04,3.691 -11.62,5.539 -19.72,5.539 -7.02,0 -12.52,-1.543 -16.49,-4.641 -3.95,-3.094 -5.93,-7.402 -5.93,-12.9296 0,-3.9648 2.07,-7.0195 6.22,-9.1875 4.08,-2.1601 12.75,-4.7187 26.02,-7.6562 19.28,-4.3281 32.16,-9.3086 38.65,-14.9492 6.5,-5.5899 9.74,-14.5703 9.74,-26.9492 0,-12.4297 -4.89,-22.293 -14.68,-29.5899 C 1125.86,3.64844 1112.62,0 1095.92,0 c -16.75,0 -29.85,3.87109 -39.27,11.6211 -9.42,7.7383 -14.47,18.7695 -15.14,33.0586 h 26.67 c 0.31,-7.0313 2.85,-12.4297 7.66,-16.2188 4.8,-3.7812 11.49,-5.6718 20.09,-5.6718 8.82,0 15.71,1.4297 20.66,4.2812 4.95,2.8516 7.43,6.8008 7.43,11.8399 0,4.9882 -1.78,8.6601 -5.36,11 -3.47,2.3398 -10.92,4.7695 -22.32,7.289 -21.01,4.6914 -35.05,9.7617 -42.13,15.2305 -7.04,5.4101 -10.56,13.8476 -10.56,25.3125 0,12.8598 4.66,23.0548 13.97,30.5858 9.3,7.539 21.88,11.309 37.73,11.309 14.84,0 26.9,-3.907 36.2,-11.711 9.31,-7.813 14.48,-18.348 15.5,-31.6213 h -26.94" /><path
         id="path84"
         style="fill:#006838;fill-opacity:1;fill-rule:nonzero;stroke:none"
         d="m 1227.89,62.6992 c -0.6,5.8906 -2.16,10.4805 -4.68,13.7813 -3.31,4.3867 -8.43,6.582 -15.41,6.582 -6.66,0 -11.74,-2.5586 -15.22,-7.6523 -2.16,-3.25 -3.72,-7.4805 -4.69,-12.711 z M 1208.16,1.07813 c -14.89,0 -26.37,4.59375 -34.46,13.78127 -8.08,9.1914 -12.11,22.289 -12.11,39.2812 0,15.6797 4.11,27.9453 12.34,36.8047 8.23,8.8555 19.64,13.2887 34.23,13.2887 14.96,0 26.48,-4.5192 34.55,-13.5621 8.08,-9.0352 12.12,-21.9024 12.12,-38.6016 0.12,-1.9297 -0.03,-3.8711 -0.45,-5.8515 h -66.75 c 0.59,-7.7579 2.3,-13.5469 5.13,-17.3907 3.61,-4.8086 9.61,-7.207 18.02,-7.207 3.9,0 7.52,1.1094 10.85,3.3281 3.34,2.2305 5.33,4.9024 6,8.0196 h 26.31 C 1251.71,23 1246.56,15.1914 1238.48,9.55078 1230.4,3.89844 1220.29,1.07813 1208.16,1.07813" /><path
         id="path86"
         style="fill:#006838;fill-opacity:1;fill-rule:nonzero;stroke:none"
         d="m 1269.92,101.617 h 24.59 V 84.0508 c 0.9,1.9219 1.93,3.789 3.07,5.5859 6.06,9.7344 13.89,14.5973 23.51,14.5973 l 5.85,-0.097 V 77.7383 c -2.28,0.25 -4.86,0.3633 -7.74,0.3633 -7.87,0 -13.74,-1.9532 -17.62,-5.8516 -3.87,-3.8984 -5.81,-9.8203 -5.81,-17.75 V 3.60156 h -12.88 -12.97 V 101.617" /><path
         id="path88"
         style="fill:#006838;fill-opacity:1;fill-rule:nonzero;stroke:none"
         d="m 1335.12,101.617 h 28.54 l 20.86,-73.1287 h 0.1 l 21.04,73.1287 h 13.61 13.6 L 1397.46,3.60156 h -13.43 -13.5 l -35.41,98.01544" /><path
         id="path90"
         style="fill:#006838;fill-opacity:1;fill-rule:nonzero;stroke:none"
         d="m 1446.43,101.617 h 25.86 V 3.60156 h -25.86 z m -0.27,35.41 h 26.31 v -23.964 h -26.31 v 23.964" /><path
         id="path92"
         style="fill:#006838;fill-opacity:1;fill-rule:nonzero;stroke:none"
         d="m 1579.54,39.9102 c -1.33,-12.1993 -5.86,-21.711 -13.6,-28.5704 C 1558.18,4.5 1548.1,1.07813 1535.66,1.07813 c -14.83,0 -26.29,4.42187 -34.36,13.24217 -8.09,8.8281 -12.12,21.4102 -12.12,37.75 0,15.9688 4.19,28.6602 12.57,38.0625 8.38,9.3945 19.68,14.1012 33.91,14.1012 12.62,0 22.94,-3.484 31,-10.4488 8.05,-6.9727 12.33,-16.1368 12.88,-27.4766 h -26.31 c -0.24,4.8633 -1.97,8.793 -5.17,11.793 -3.23,3.0078 -7.35,4.5117 -12.4,4.5117 -6.48,0 -11.42,-2.5977 -14.82,-7.793 -3.39,-5.1914 -5.09,-12.7812 -5.09,-22.75 0,-9.7305 1.7,-17.1289 5.09,-22.2109 3.4,-5.0781 8.34,-7.6094 14.82,-7.6094 4.69,0 8.66,1.6211 11.9,4.8711 3.24,3.2383 5.14,7.5078 5.67,12.7891 h 26.31" /><path
         id="path94"
         style="fill:#006838;fill-opacity:1;fill-rule:nonzero;stroke:none"
         d="m 1659.72,62.6992 c -0.6,5.8906 -2.16,10.4805 -4.68,13.7813 -3.31,4.3867 -8.44,6.582 -15.41,6.582 -6.66,0 -11.74,-2.5586 -15.23,-7.6523 -2.15,-3.25 -3.72,-7.4805 -4.68,-12.711 z M 1639.99,1.07813 c -14.89,0 -26.38,4.59375 -34.46,13.78127 -8.08,9.1914 -12.11,22.289 -12.11,39.2812 0,15.6797 4.11,27.9453 12.33,36.8047 8.23,8.8555 19.65,13.2887 34.24,13.2887 14.96,0 26.47,-4.5192 34.55,-13.5621 8.08,-9.0352 12.12,-21.9024 12.12,-38.6016 0.12,-1.9297 -0.03,-3.8711 -0.45,-5.8515 h -66.76 c 0.6,-7.7579 2.31,-13.5469 5.14,-17.3907 3.6,-4.8086 9.61,-7.207 18.02,-7.207 3.89,0 7.52,1.1094 10.85,3.3281 3.34,2.2305 5.33,4.9024 5.99,8.0196 h 26.31 C 1683.54,23 1678.39,15.1914 1670.3,9.55078 1662.23,3.89844 1652.12,1.07813 1639.99,1.07813" /><path
         id="path96"
         style="fill:#006838;fill-opacity:1;fill-rule:nonzero;stroke:none"
         d="m 1759.26,72.25 c 0,3.7813 -1.56,6.8203 -4.69,9.0938 -3.12,2.2851 -7.27,3.4296 -12.44,3.4296 -4.98,0 -8.88,-0.8593 -11.67,-2.5703 -2.79,-1.707 -4.19,-4.1015 -4.19,-7.1523 0,-2.1719 1.58,-4.0313 4.77,-5.5899 3.12,-1.5 8.68,-3.1523 16.67,-4.9609 15.86,-3.5508 26.47,-7.4102 31.81,-11.6211 5.36,-4.1992 8.05,-10.8086 8.05,-19.8203 0,-9.6094 -3.9,-17.3398 -11.67,-23.19922 -7.78,-5.84766 -18.04,-8.78125 -30.77,-8.78125 -15.08,0 -26.69,2.88281 -34.84,8.64062 -8.13,5.78125 -12.47,14.17965 -13.01,25.23045 h 26.3 c 0.18,-4.5 2.18,-8.0273 6,-10.5898 3.81,-2.5508 8.99,-3.8281 15.54,-3.8281 5.16,0 9.21,0.8906 12.12,2.6679 2.92,1.7696 4.37,4.25 4.37,7.4297 0,2.2227 -1.41,4.1094 -4.23,5.6797 -2.82,1.4922 -7.78,3.0195 -14.87,4.5898 -16.57,3.7305 -27.66,7.6524 -33.24,11.8008 -5.59,4.0821 -8.37,10.4219 -8.37,19.0117 0,9.7305 3.61,17.5821 10.85,23.5586 7.23,5.9765 16.77,8.9645 28.6,8.9645 13.33,0 24.08,-2.929 32.25,-8.7887 8.16,-5.8476 12.24,-13.582 12.24,-23.1953 h -25.58" /></g></g></svg>